<svg width="109" height="158" viewBox="0 0 109 158" fill="none" xmlns="http://www.w3.org/2000/svg">
<path d="M72.5473 145.465C72.5473 145.465 97.0633 144.856 97.1454 118.852C97.1454 118.852 86.6388 120.698 81.9467 126.649C77.2526 132.591 72.5554 145.463 72.5554 145.463L72.5473 145.465Z" fill="#496319"/>
<path d="M80.5599 136.526C80.5599 136.526 93.5484 133.69 98.7629 119.75C102.269 110.37 97.7004 91.0102 88.9672 84.2095C80.2341 77.4087 75.0932 118.5 80.5538 136.536L80.5599 136.526Z" fill="#FFDE59"/>
<path d="M86.9346 123.199C86.9346 123.199 97.7583 110.748 91.5382 90.7697C86.9339 75.9878 73.9775 62.0824 80.4403 55.6746C80.4403 55.6746 67.1018 57.8285 69.6294 73.7417C72.1652 89.6528 87.3676 111.93 86.9428 123.197L86.9346 123.199Z" fill="#496319"/>
<path d="M75.0257 75.2285C75.0257 75.2285 67.9073 64.0351 58.7109 57.2948C49.5144 50.5545 51.3199 33.7784 66.0125 36.373C66.0125 36.373 57.3708 21.4266 44.7335 26.3816C32.0963 31.3366 27.2559 42.1911 36.0488 54.5336C44.8417 66.8762 69.3658 69.169 75.0156 75.2224L75.0257 75.2285Z" fill="#D69754"/>
<path d="M42.0431 65.7527C42.0431 65.7527 26.752 56.1312 19.0338 69.8706C12.5369 81.4349 21.4072 94.7279 25.3513 96.2459C25.3513 96.2459 25.2599 88.164 27.4723 83.1608C31.0007 75.1791 43.6673 72.2924 53.3654 74.8732C63.0717 77.452 54.4374 70.1741 42.0431 65.7527Z" fill="#FFDE59"/>
<path d="M70.4364 90.442C70.4364 90.442 58.3907 79.5828 49.1666 87.3702C39.9424 95.1576 53.997 102.701 53.997 102.701C53.997 102.701 38.2094 108.001 32.6942 98.3092C27.179 88.6175 30.3315 78.5189 38.4927 74.2464C46.6538 69.974 59.1877 73.7698 65.0931 80.8527C70.9984 87.9357 70.4364 90.442 70.4364 90.442Z" fill="#D69754"/>
<path d="M38.4857 126.768C38.4857 126.768 47.0984 134.185 53.9311 127.024C60.7639 119.862 54.8224 105.308 40.469 107.371C26.1137 109.425 21.1046 127.565 37.7341 144.816C54.6084 162.323 96.8141 145.265 88.9505 106.079C81.0869 66.8933 58.3141 62.4946 43.4608 53.0226C28.6076 43.5507 26.5632 19.4734 39.5383 9.73761C39.5383 9.73761 7.58465 14.4042 10.9721 38.6677C14.3595 62.9312 37.2923 65.1087 51.5885 74.5661C72.8606 88.6325 82.006 111.32 72.6295 126.728C63.2243 142.195 47.5468 144.427 38.4857 126.768Z" fill="#E96E17"/>
</svg>
