<svg width="109" height="158" viewBox="0 0 109 158" fill="none" xmlns="http://www.w3.org/2000/svg">
<path d="M36.4537 145.465C36.4537 145.465 11.9377 144.856 11.8556 118.852C11.8556 118.852 22.3622 120.698 27.0543 126.649C31.7484 132.591 36.4455 145.463 36.4455 145.463L36.4537 145.465Z" fill="#496319"/>
<path d="M28.4411 136.526C28.4411 136.526 15.4526 133.69 10.2381 119.75C6.73161 110.37 11.3006 91.0102 20.0338 84.2095C28.7669 77.4087 33.9078 118.5 28.4472 136.536L28.4411 136.526Z" fill="#FFDE59"/>
<path d="M22.0664 123.199C22.0664 123.199 11.2427 110.748 17.4628 90.7697C22.067 75.9878 35.0235 62.0824 28.5607 55.6746C28.5607 55.6746 41.8992 57.8285 39.3716 73.7417C36.8358 89.6528 21.6334 111.93 22.0582 123.197L22.0664 123.199Z" fill="#496319"/>
<path d="M33.9752 75.2285C33.9752 75.2285 41.0937 64.0351 50.2901 57.2948C59.4865 50.5545 57.6811 33.7784 42.9885 36.373C42.9885 36.373 51.6302 21.4266 64.2674 26.3816C76.9047 31.3366 81.7451 42.1911 72.9522 54.5336C64.1593 66.8762 39.6352 69.169 33.9853 75.2224L33.9752 75.2285Z" fill="#D69754"/>
<path d="M66.9579 65.7527C66.9579 65.7527 82.2489 56.1312 89.9672 69.8706C96.4641 81.4349 87.5938 94.7279 83.6497 96.2459C83.6497 96.2459 83.7411 88.164 81.5287 83.1608C78.0003 75.1791 65.3337 72.2924 55.6355 74.8732C45.9293 77.452 54.5636 70.1741 66.9579 65.7527Z" fill="#FFDE59"/>
<path d="M38.5645 90.442C38.5645 90.442 50.6103 79.5828 59.8344 87.3702C69.0585 95.1576 55.004 102.701 55.004 102.701C55.004 102.701 70.7916 108.001 76.3068 98.3092C81.822 88.6175 78.6694 78.5189 70.5083 74.2464C62.3471 69.974 49.8133 73.7698 43.9079 80.8527C38.0025 87.9357 38.5645 90.442 38.5645 90.442Z" fill="#D69754"/>
<path d="M70.5152 126.768C70.5152 126.768 61.9026 134.185 55.0699 127.024C48.2371 119.862 54.1786 105.308 68.532 107.371C82.8873 109.425 87.8964 127.565 71.2669 144.816C54.3925 162.323 12.1868 145.265 20.0504 106.079C27.9141 66.8933 50.6869 62.4946 65.5401 53.0226C80.3934 43.5507 82.4378 19.4734 69.4627 9.73761C69.4627 9.73761 101.416 14.4042 98.0289 38.6677C94.6414 62.9312 71.7087 65.1087 57.4124 74.5661C36.1403 88.6325 26.995 111.32 36.3714 126.728C45.7766 142.195 61.4542 144.427 70.5152 126.768Z" fill="#E96E17"/>
</svg>
