<svg width="142" height="94" viewBox="0 0 142 94" fill="none" xmlns="http://www.w3.org/2000/svg">
<path d="M53.2297 79.9316C53.2297 79.9316 49.4952 63.1479 56.0056 63.1479C63.013 63.1479 52.967 74.117 53.2297 79.9316Z" fill="white"/>
<path d="M35.9205 65.0222C35.9205 65.0222 25.8035 56.5878 24.6746 43.283C23.5529 29.9782 37.9794 18.1714 31.2347 11.0504C31.2347 11.0504 43.2261 9.92864 47.1664 21.5437C51.0996 33.1588 33.4853 55.4589 35.9205 65.0222Z" fill="white"/>
<path d="M45.4693 80.3641C45.4693 80.3641 36.332 64.8939 25.5263 67.4995C14.7135 70.1121 10.9862 81.2941 17.8871 87.0733C17.8871 87.0733 9.87152 85.9515 6.32877 80.1795C2.78603 74.4075 6.70506 62.6575 15.8352 62.8421C15.8352 62.8421 8.94145 60.0448 0.734221 64.7093C0.734221 64.7093 0.173344 53.8965 13.968 52.221C27.7627 50.5454 42.3029 63.0338 45.4693 80.3712V80.3641Z" fill="white"/>
<path d="M42.1612 76.5521C42.1612 76.5521 34.3303 69.4879 25.335 73.7264C16.3397 77.9649 18.9168 91.4472 28.9274 91.3194C41.5151 91.1561 34.8343 79.3777 34.8343 79.3777C34.8343 79.3777 41.8985 78.8666 45.8814 82.0756C49.8644 85.2847 47.2943 79.8889 42.1541 76.5521H42.1612Z" fill="white"/>
<path d="M63.1409 87.3296C62.7433 87.4645 51.5116 78.3414 50.3188 70.1484C49.1261 61.9554 53.7551 53.102 64.0638 54.025C64.0638 54.025 59.8324 46.4922 48.9983 50.7237C40.9331 53.8688 38.4269 70.4182 45.8248 78.0787C53.2226 85.7464 63.1409 87.3296 63.1409 87.3296Z" fill="white"/>
<path d="M67.6843 65.5761C67.6843 65.5761 73.7049 59.3993 72.1216 52.2642C70.5384 45.129 62.7713 44.8166 62.7713 44.8166C62.7713 44.8166 67.5281 39.7474 75.927 41.9625C84.326 44.1776 84.9578 57.1771 67.6843 65.5761Z" fill="white"/>
<path d="M75.288 60.0314C75.288 60.0314 83.5307 58.1287 88.9194 52.4276C94.3081 46.7195 89.7146 36.5811 83.3745 36.1055C83.3745 36.1055 80.5205 54.806 76.5589 57.3406C72.5972 59.8752 75.288 60.0314 75.288 60.0314Z" fill="white"/>
<path d="M81.3445 58.3706C81.3445 58.3706 84.7807 53.1666 93.7263 51.917C102.672 50.6675 108.401 60.2449 114.543 65.0301C120.684 69.8153 126.3 63.3617 126.3 63.3617C126.3 63.3617 126.506 71.4766 119.747 73.8692C112.981 76.2618 105.696 61.4874 97.475 59.4072C89.2535 57.327 84.8801 56.2833 81.3445 58.3635V58.3706Z" fill="white"/>
<path d="M81.3443 90.0703C81.3443 90.0703 69.2109 96.1192 52.1717 88.2102C35.1325 80.3011 20.8763 35.6867 52.5196 18.0369C84.1629 0.387102 109.722 10.1279 120.982 0.692383C120.982 0.692383 116.111 21.0756 99.3775 21.9914C82.6435 22.9073 73.2081 19.251 73.2081 19.251C73.2081 19.251 81.4224 31.4198 70.7729 35.0761C60.1233 38.7325 51.6037 33.8621 43.6947 45.1151C35.7856 56.3752 44.3053 85.5833 66.8184 86.4991L81.3443 90.0703Z" fill="white"/>
<path d="M75.6147 85.8878C75.6147 85.8878 70.9289 82.7214 73.8398 76.8925C76.7507 71.0637 88.7846 72.9664 87.2653 82.2102C85.746 91.454 75.8632 93.8608 68.3944 89.3028C60.9255 84.7448 59.9102 63.3321 77.5174 57.2548C95.1246 51.1775 104.461 63.6374 113.861 70.9572C123.325 78.3267 133.001 76.3814 133.506 68.6498C133.506 68.6498 136.296 77.6451 131.731 81.0601C131.731 81.0601 139.455 82.3238 141.862 88.6638C141.862 88.6638 137.084 91.2978 128.94 90.3109C116.275 88.7703 112.476 77.7729 112.476 77.7729C112.476 77.7729 109.942 81.3227 111.589 85.1211C113.236 88.9194 118.554 87.9112 118.554 87.9112C118.554 87.9112 115.891 93.6123 110.829 92.9804C105.767 92.3486 103.609 88.5502 104.873 81.9617C104.873 81.9617 99.8033 86.7753 94.3579 84.3685C94.3579 84.3685 103.083 79.0792 103.808 75.2951C104.887 69.6722 98.3905 63.8504 88.8485 62.608C82.3878 61.7702 72.8814 61.2093 69.4593 73.4989C66.0373 85.7884 73.5771 86.5197 75.6076 85.8878H75.6147Z" fill="white"/>
</svg>
