<svg width="142" height="94" viewBox="0 0 142 94" fill="none" xmlns="http://www.w3.org/2000/svg">
<path d="M89.0353 79.9321C89.0353 79.9321 92.7697 63.1484 86.2593 63.1484C79.2519 63.1484 89.298 74.1175 89.0353 79.9321Z" fill="white"/>
<path d="M106.345 65.0227C106.345 65.0227 116.462 56.5883 117.59 43.2835C118.712 29.9787 104.286 18.1719 111.03 11.0509C111.03 11.0509 99.0389 9.92913 95.0986 21.5442C91.1654 33.1593 108.78 55.4594 106.345 65.0227Z" fill="white"/>
<path d="M96.7957 80.3646C96.7957 80.3646 105.933 64.8944 116.739 67.4999C127.551 70.1126 131.279 81.2946 124.378 87.0738C124.378 87.0738 132.393 85.952 135.936 80.18C139.479 74.408 135.56 62.658 126.43 62.8426C126.43 62.8426 133.324 60.0453 141.531 64.7098C141.531 64.7098 142.092 53.897 128.297 52.2214C114.502 50.5459 99.9621 63.0343 96.7957 80.3717V80.3646Z" fill="white"/>
<path d="M100.104 76.5526C100.104 76.5526 107.935 69.4884 116.93 73.7269C125.925 77.9654 123.348 91.4477 113.338 91.3199C100.75 91.1566 107.431 79.3782 107.431 79.3782C107.431 79.3782 100.367 78.8671 96.3836 82.0761C92.4007 85.2852 94.9708 79.8894 100.111 76.5526H100.104Z" fill="white"/>
<path d="M79.1241 87.3301C79.5217 87.465 90.7534 78.3419 91.9462 70.1489C93.1389 61.9558 88.5099 53.1025 78.2012 54.0255C78.2012 54.0255 82.4326 46.4927 93.2667 50.7241C101.332 53.8693 103.838 70.4187 96.4403 78.0792C89.0424 85.7469 79.1241 87.3301 79.1241 87.3301Z" fill="white"/>
<path d="M74.5807 65.5766C74.5807 65.5766 68.5601 59.3998 70.1434 52.2647C71.7266 45.1295 79.4937 44.8171 79.4937 44.8171C79.4937 44.8171 74.7369 39.7479 66.3379 41.963C57.939 44.1781 57.3071 57.1776 74.5807 65.5766Z" fill="white"/>
<path d="M66.9769 60.0319C66.9769 60.0319 58.7342 58.1292 53.3456 52.4281C47.9569 46.72 52.5504 36.5816 58.8904 36.106C58.8904 36.106 61.7445 54.8065 65.7061 57.3411C69.6677 59.8757 66.9769 60.0319 66.9769 60.0319Z" fill="white"/>
<path d="M60.9205 58.3711C60.9205 58.3711 57.4843 53.1671 48.5387 51.9175C39.5931 50.668 33.8636 60.2454 27.7224 65.0306C21.5812 69.8158 15.9653 63.3622 15.9653 63.3622C15.9653 63.3622 15.7595 71.4771 22.5184 73.8697C29.2844 76.2623 36.5686 61.4879 44.7901 59.4077C53.0115 57.3275 57.3849 56.2838 60.9205 58.364V58.3711Z" fill="white"/>
<path d="M60.9207 90.0708C60.9207 90.0708 73.0541 96.1197 90.0933 88.2107C107.133 80.3016 121.389 35.6872 89.7454 18.0374C58.1021 0.38759 32.5433 10.1283 21.2832 0.692871C21.2832 0.692871 26.1536 21.076 42.8875 21.9919C59.6215 22.9078 69.0569 19.2514 69.0569 19.2514C69.0569 19.2514 60.8426 31.4203 71.4922 35.0766C82.1417 38.733 90.6613 33.8626 98.5703 45.1156C106.479 56.3757 97.9598 85.5838 75.4467 86.4996L60.9207 90.0708Z" fill="white"/>
<path d="M66.6503 85.8883C66.6503 85.8883 71.336 82.7219 68.4252 76.893C65.5143 71.0642 53.4803 72.9669 54.9997 82.2107C56.519 91.4545 66.4018 93.8613 73.8706 89.3033C81.3395 84.7453 82.3548 63.3326 64.7475 57.2553C47.1403 51.178 37.8043 63.6379 28.4043 70.9577C18.9404 78.3272 9.26352 76.3818 8.75945 68.6503C8.75945 68.6503 5.96927 77.6456 10.5344 81.0605C10.5344 81.0605 2.80992 82.3243 0.40313 88.6643C0.40313 88.6643 5.1812 91.2983 13.3245 90.3114C25.9904 88.7708 29.7887 77.7734 29.7887 77.7734C29.7887 77.7734 32.3233 81.3232 30.6762 85.1216C29.029 88.9199 23.7114 87.9117 23.7114 87.9117C23.7114 87.9117 26.3738 93.6128 31.4358 92.9809C36.4979 92.349 38.6562 88.5507 37.3925 81.9622C37.3925 81.9622 42.4616 86.7758 47.9071 84.369C47.9071 84.369 39.1816 79.0797 38.4574 75.2956C37.3783 69.6727 43.8745 63.8509 53.4164 62.6085C59.8771 61.7707 69.3836 61.2098 72.8057 73.4994C76.2277 85.7889 68.6879 86.5202 66.6574 85.8883H66.6503Z" fill="white"/>
</svg>
